<svg width="64" height="70" viewBox="0 0 64 70" fill="none" xmlns="http://www.w3.org/2000/svg">
<path d="M31.6862 7.89L23.7647 15.78H39.5447L31.6862 7.89ZM6.312 22.092V63.12H56.808V22.092H6.312ZM31.56 0L47.34 15.78H56.808C58.482 15.78 60.0875 16.445 61.2713 17.6287C62.455 18.8125 63.12 20.418 63.12 22.092V63.12C63.12 64.794 62.455 66.3995 61.2713 67.5833C60.0875 68.767 58.482 69.432 56.808 69.432H6.312C4.63795 69.432 3.03247 68.767 1.84874 67.5833C0.665012 66.3995 0 64.794 0 63.12V22.092C0 20.418 0.665012 18.8125 1.84874 17.6287C3.03247 16.445 4.63795 15.78 6.312 15.78H15.78L31.56 0ZM15.78 56.808V44.184H31.56V56.808H15.78ZM37.872 53.652V31.56H50.496V53.652H37.872ZM12.624 37.872V28.404H28.404V37.872H12.624Z" fill="black"/>
</svg>
