<svg width="93" height="97" viewBox="0 0 93 97" fill="none" xmlns="http://www.w3.org/2000/svg">
<path d="M17.4579 58.8316L29.9158 92.0526H46.5263L34.0684 58.8316M75.5947 54.6789C82.4757 54.6789 88.0526 49.102 88.0526 42.2211C88.0526 35.3401 82.4757 29.7632 75.5947 29.7632M42.3737 75.4421C46.5263 75.4421 54.8316 71.2895 54.8316 62.9842M42.3737 58.8316C54.8316 58.8316 75.5947 75.4421 75.5947 75.4421V9C75.5947 9 54.8316 25.6105 42.3737 25.6105V58.8316ZM5 42.2211C5 29.3018 12.4382 25.6105 21.6105 25.6105H42.3737V58.8316H21.6105C12.4382 58.8316 5 55.1404 5 42.2211Z" stroke="#1877F2" stroke-width="8.30526"/>
</svg>
