<svg width="73" height="80" viewBox="0 0 73 80" fill="none" xmlns="http://www.w3.org/2000/svg">
<path d="M66.8684 6.07895H57.75V3.03947C57.75 2.23336 57.4298 1.46025 56.8598 0.890241C56.2898 0.320229 55.5166 0 54.7105 0C53.9044 0 53.1313 0.320229 52.5613 0.890241C51.9913 1.46025 51.6711 2.23336 51.6711 3.03947V6.07895H21.2763V3.03947C21.2763 2.23336 20.9561 1.46025 20.3861 0.890241C19.8161 0.320229 19.043 0 18.2368 0C17.4307 0 16.6576 0.320229 16.0876 0.890241C15.5176 1.46025 15.1974 2.23336 15.1974 3.03947V6.07895H6.07895C4.46728 6.08079 2.92214 6.72184 1.78252 7.86147C0.642894 9.00109 0.00184321 10.5462 0 12.1579V72.9474C0.00184321 74.559 0.642894 76.1042 1.78252 77.2438C2.92214 78.3834 4.46728 79.0245 6.07895 79.0263H66.8684C68.4801 79.0245 70.0252 78.3834 71.1649 77.2438C72.3045 76.1042 72.9455 74.559 72.9474 72.9474V12.1579C72.9455 10.5462 72.3045 9.00109 71.1649 7.86147C70.0252 6.72184 68.4801 6.08079 66.8684 6.07895ZM6.07895 12.1579H15.1974V15.1974C15.1974 16.0035 15.5176 16.7766 16.0876 17.3466C16.6576 17.9166 17.4307 18.2368 18.2368 18.2368C19.043 18.2368 19.8161 17.9166 20.3861 17.3466C20.9561 16.7766 21.2763 16.0035 21.2763 15.1974V12.1579H51.6711V15.1974C51.6711 16.0035 51.9913 16.7766 52.5613 17.3466C53.1313 17.9166 53.9044 18.2368 54.7105 18.2368C55.5166 18.2368 56.2898 17.9166 56.8598 17.3466C57.4298 16.7766 57.75 16.0035 57.75 15.1974V12.1579H66.8684L66.8692 24.3158H6.07895V12.1579ZM66.8684 72.9474H6.07895V30.3947H66.8695L66.8721 72.9474H66.8684ZM36.4737 56.2291C36.4737 58.0321 35.9392 59.7947 34.9377 61.294C33.9363 62.7932 32.5128 63.962 30.8472 64.6524C29.1817 65.3429 27.3488 65.5241 25.5803 65.1731C23.8118 64.8222 22.1871 63.9548 20.9114 62.6806C20.3411 62.1109 20.0204 61.338 20.0199 60.5319C20.0194 59.7258 20.3392 58.9525 20.9089 58.3821C21.4786 57.8118 22.2515 57.4911 23.0576 57.4906C23.8637 57.4902 24.637 57.81 25.2074 58.3796C25.561 58.7328 25.9962 58.9933 26.4745 59.1382C26.9528 59.283 27.4595 59.3076 27.9496 59.2099C28.4397 59.1122 28.8982 58.8951 29.2844 58.5779C29.6706 58.2607 29.9726 57.8532 30.1637 57.3914C30.3548 56.9296 30.4291 56.4278 30.38 55.9305C30.3309 55.4332 30.1599 54.9556 29.8822 54.5401C29.6045 54.1246 29.2286 53.784 28.7879 53.5484C28.3471 53.3129 27.855 53.1897 27.3553 53.1897C26.7827 53.1897 26.2218 53.028 25.7372 52.7232C25.2525 52.4185 24.8638 51.983 24.6158 51.467C24.3677 50.951 24.2705 50.3754 24.3353 49.8066C24.4 49.2377 24.6241 48.6987 24.9818 48.2516L27.1102 45.591H22.7961C21.9899 45.591 21.2168 45.2708 20.6468 44.7008C20.0768 44.1307 19.7566 43.3576 19.7566 42.5515C19.7566 41.7454 20.0768 40.9723 20.6468 40.4023C21.2168 39.8323 21.9899 39.512 22.7961 39.512H33.4342C34.0067 39.512 34.5676 39.6737 35.0523 39.9785C35.537 40.2832 35.9257 40.7187 36.1737 41.2347C36.4217 41.7507 36.519 42.3263 36.4542 42.8952C36.3895 43.464 36.1653 44.003 35.8077 44.4501L32.4382 48.662C33.6799 49.4956 34.6975 50.6218 35.4013 51.9414C36.105 53.2611 36.4733 54.7336 36.4737 56.2291V56.2291ZM51.6711 42.5515V62.3081C51.6711 63.1142 51.3508 63.8873 50.7808 64.4573C50.2108 65.0273 49.4377 65.3476 48.6316 65.3476C47.8255 65.3476 47.0524 65.0273 46.4823 64.4573C45.9123 63.8873 45.5921 63.1142 45.5921 62.3081V48.6305L44.3762 49.5425C43.7313 50.0261 42.9207 50.2337 42.1226 50.1197C41.3246 50.0057 40.6046 49.5793 40.1209 48.9343C39.6373 48.2894 39.4296 47.4788 39.5437 46.6807C39.6577 45.8827 40.0841 45.1627 40.729 44.679L46.808 40.1198C47.2596 39.7812 47.7965 39.575 48.3587 39.5243C48.9209 39.4737 49.486 39.5806 49.9909 39.833C50.4957 40.0855 50.9203 40.4735 51.2171 40.9536C51.5138 41.4338 51.671 41.9871 51.6711 42.5515Z" fill="#1877F2"/>
</svg>
