<svg width="64" height="64" viewBox="0 0 64 64" fill="none" xmlns="http://www.w3.org/2000/svg">
<path fill-rule="evenodd" clip-rule="evenodd" d="M16.9938 0C18.3346 0 19.4215 1.08693 19.4215 2.42769V4.85538H43.6985V2.42769C43.6985 1.08693 44.7856 0 46.1262 0C47.4667 0 48.5538 1.08693 48.5538 2.42769V4.85538H55.8369C59.8591 4.85538 63.12 8.11611 63.12 12.1385V55.8369C63.12 59.8591 59.8591 63.12 55.8369 63.12H7.28308C3.26073 63.12 0 59.8591 0 55.8369V12.1385C0 8.11611 3.26073 4.85538 7.28308 4.85538H14.5662V2.42769C14.5662 1.08693 15.6531 0 16.9938 0ZM43.6985 9.71077V12.1385C43.6985 13.4792 44.7856 14.5662 46.1262 14.5662C47.4667 14.5662 48.5538 13.4792 48.5538 12.1385V9.71077H55.8369C57.1775 9.71077 58.2646 10.7977 58.2646 12.1385V19.4215H4.85538V12.1385C4.85538 10.7977 5.94231 9.71077 7.28308 9.71077H14.5662V12.1385C14.5662 13.4792 15.6531 14.5662 16.9938 14.5662C18.3346 14.5662 19.4215 13.4792 19.4215 12.1385V9.71077H43.6985ZM4.85538 24.2769V55.8369C4.85538 57.1775 5.94231 58.2646 7.28308 58.2646H55.8369C57.1775 58.2646 58.2646 57.1775 58.2646 55.8369V24.2769H4.85538ZM29.1323 31.56C29.1323 30.2192 30.2192 29.1323 31.56 29.1323C32.9008 29.1323 33.9877 30.2192 33.9877 31.56C33.9877 32.9008 32.9008 33.9877 31.56 33.9877C30.2192 33.9877 29.1323 32.9008 29.1323 31.56ZM41.2708 29.1323C39.93 29.1323 38.8431 30.2192 38.8431 31.56C38.8431 32.9008 39.93 33.9877 41.2708 33.9877C42.6115 33.9877 43.6985 32.9008 43.6985 31.56C43.6985 30.2192 42.6115 29.1323 41.2708 29.1323ZM48.5538 31.56C48.5538 30.2192 49.641 29.1323 50.9815 29.1323C52.3221 29.1323 53.4092 30.2192 53.4092 31.56C53.4092 32.9008 52.3221 33.9877 50.9815 33.9877C49.641 33.9877 48.5538 32.9008 48.5538 31.56ZM50.9815 38.8431C49.641 38.8431 48.5538 39.93 48.5538 41.2708C48.5538 42.6115 49.641 43.6985 50.9815 43.6985C52.3221 43.6985 53.4092 42.6115 53.4092 41.2708C53.4092 39.93 52.3221 38.8431 50.9815 38.8431ZM38.8431 41.2708C38.8431 39.93 39.93 38.8431 41.2708 38.8431C42.6115 38.8431 43.6985 39.93 43.6985 41.2708C43.6985 42.6115 42.6115 43.6985 41.2708 43.6985C39.93 43.6985 38.8431 42.6115 38.8431 41.2708ZM31.56 38.8431C30.2192 38.8431 29.1323 39.93 29.1323 41.2708C29.1323 42.6115 30.2192 43.6985 31.56 43.6985C32.9008 43.6985 33.9877 42.6115 33.9877 41.2708C33.9877 39.93 32.9008 38.8431 31.56 38.8431ZM19.4215 41.2708C19.4215 39.93 20.5085 38.8431 21.8492 38.8431C23.19 38.8431 24.2769 39.93 24.2769 41.2708C24.2769 42.6115 23.19 43.6985 21.8492 43.6985C20.5085 43.6985 19.4215 42.6115 19.4215 41.2708ZM12.1385 38.8431C10.7977 38.8431 9.71077 39.93 9.71077 41.2708C9.71077 42.6115 10.7977 43.6985 12.1385 43.6985C13.4792 43.6985 14.5662 42.6115 14.5662 41.2708C14.5662 39.93 13.4792 38.8431 12.1385 38.8431ZM9.71077 50.9815C9.71077 49.641 10.7977 48.5538 12.1385 48.5538C13.4792 48.5538 14.5662 49.641 14.5662 50.9815C14.5662 52.3221 13.4792 53.4092 12.1385 53.4092C10.7977 53.4092 9.71077 52.3221 9.71077 50.9815ZM21.8492 48.5538C20.5085 48.5538 19.4215 49.641 19.4215 50.9815C19.4215 52.3221 20.5085 53.4092 21.8492 53.4092C23.19 53.4092 24.2769 52.3221 24.2769 50.9815C24.2769 49.641 23.19 48.5538 21.8492 48.5538ZM29.1323 50.9815C29.1323 49.641 30.2192 48.5538 31.56 48.5538C32.9008 48.5538 33.9877 49.641 33.9877 50.9815C33.9877 52.3221 32.9008 53.4092 31.56 53.4092C30.2192 53.4092 29.1323 52.3221 29.1323 50.9815ZM41.2708 48.5538C39.93 48.5538 38.8431 49.641 38.8431 50.9815C38.8431 52.3221 39.93 53.4092 41.2708 53.4092C42.6115 53.4092 43.6985 52.3221 43.6985 50.9815C43.6985 49.641 42.6115 48.5538 41.2708 48.5538Z" fill="#606060"/>
</svg>
