<svg width="64" height="67" viewBox="0 0 64 67" fill="none" xmlns="http://www.w3.org/2000/svg">
<path d="M62.2865 41.8108L57.4122 37.6435C57.6429 36.2296 57.762 34.7859 57.762 33.3423C57.762 31.8986 57.6429 30.4549 57.4122 29.041L62.2865 24.8737C62.6542 24.5589 62.9173 24.1397 63.0409 23.6718C63.1646 23.2039 63.1428 22.7095 62.9786 22.2542L62.9116 22.0607C61.5697 18.3103 59.5604 14.8337 56.9806 11.7987L56.8467 11.6424C56.5337 11.2745 56.1166 11.01 55.6504 10.8837C55.1841 10.7575 54.6905 10.7756 54.2347 10.9355L48.1846 13.0861C45.9521 11.2555 43.4592 9.8118 40.7653 8.79974L39.597 2.47434C39.5088 1.99839 39.2779 1.56053 38.935 1.21892C38.5921 0.877318 38.1533 0.648142 37.677 0.561844L37.4761 0.524635C33.599 -0.174878 29.521 -0.174878 25.6439 0.524635L25.443 0.561844C24.9667 0.648142 24.5279 0.877318 24.185 1.21892C23.8421 1.56053 23.6112 1.99839 23.523 2.47434L22.3473 8.8295C19.6749 9.84178 17.1862 11.2847 14.98 13.101L8.88533 10.9355C8.42965 10.7743 7.93571 10.7556 7.46915 10.8819C7.00259 11.0082 6.58551 11.2734 6.27332 11.6424L6.13937 11.7987C3.56267 14.8358 1.55365 18.3119 0.208381 22.0607L0.141406 22.2542C-0.193468 23.1844 0.0818732 24.2263 0.833479 24.8737L5.76728 29.0856C5.53659 30.4847 5.42497 31.9135 5.42497 33.3348C5.42497 34.7636 5.53659 36.1924 5.76728 37.584L0.833479 41.796C0.46583 42.1107 0.202699 42.5299 0.0790749 42.9978C-0.0445491 43.4657 -0.0228086 43.9602 0.141406 44.4154L0.208381 44.6089C1.55532 48.3595 3.54968 51.8198 6.13937 54.8709L6.27332 55.0272C6.58627 55.3952 7.00337 55.6597 7.46965 55.7859C7.93593 55.9121 8.42951 55.894 8.88533 55.7341L14.98 53.5686C17.1976 55.3918 19.6757 56.8355 22.3473 57.8401L23.523 64.1953C23.6112 64.6712 23.8421 65.1091 24.185 65.4507C24.5279 65.7923 24.9667 66.0215 25.443 66.1078L25.6439 66.145C29.5566 66.8483 33.5634 66.8483 37.4761 66.145L37.677 66.1078C38.1533 66.0215 38.5921 65.7923 38.935 65.4507C39.2779 65.1091 39.5088 64.6712 39.597 64.1953L40.7653 57.8699C43.4581 56.8605 45.9651 55.4121 48.1846 53.5835L54.2347 55.7341C54.6904 55.8953 55.1843 55.914 55.6509 55.7877C56.1174 55.6615 56.5345 55.3962 56.8467 55.0272L56.9806 54.8709C59.5703 51.8124 61.5647 48.3595 62.9116 44.6089L62.9786 44.4154C63.3135 43.5001 63.0381 42.4583 62.2865 41.8108ZM52.1287 29.9191C52.3147 31.0428 52.4115 32.1962 52.4115 33.3497C52.4115 34.5032 52.3147 35.6566 52.1287 36.7803L51.6375 39.7644L57.1964 44.5196C56.3537 46.461 55.29 48.2989 54.0263 49.9966L47.1205 47.5483L44.7838 49.4683C43.0052 50.9268 41.0258 52.0729 38.8826 52.8766L36.0473 53.9407L34.7153 61.1591C32.6135 61.3972 30.4916 61.3972 28.3899 61.1591L27.0578 53.9258L24.2449 52.8468C22.124 52.0431 20.152 50.8971 18.3883 49.446L16.0516 47.5186L9.10114 49.9892C7.83606 48.2851 6.77935 46.447 5.931 44.5122L11.5494 39.7123L11.0657 36.7356C10.8871 35.6268 10.7904 34.4808 10.7904 33.3497C10.7904 32.2111 10.8797 31.0726 11.0657 29.9638L11.5494 26.9871L5.931 22.1872C6.77191 20.245 7.83606 18.4143 9.10114 16.7102L16.0516 19.1808L18.3883 17.2534C20.152 15.8023 22.124 14.6563 24.2449 13.8526L27.0653 12.7885L28.3973 5.55518C30.4884 5.31705 32.6242 5.31705 34.7227 5.55518L36.0547 12.7736L38.89 13.8377C41.0258 14.6414 43.0127 15.7874 44.7912 17.246L47.1279 19.1659L54.0337 16.7176C55.2988 18.4218 56.3555 20.2599 57.2039 22.1947L51.645 26.9499L52.1287 29.9191ZM31.5674 19.5083C24.3342 19.5083 18.4702 25.3723 18.4702 32.6055C18.4702 39.8388 24.3342 45.7028 31.5674 45.7028C38.8007 45.7028 44.6647 39.8388 44.6647 32.6055C44.6647 25.3723 38.8007 19.5083 31.5674 19.5083V19.5083ZM37.4612 38.4993C36.6882 39.2746 35.7695 39.8893 34.758 40.3082C33.7466 40.7271 32.6622 40.9419 31.5674 40.9402C29.3424 40.9402 27.2513 40.0695 25.6737 38.4993C24.8984 37.7263 24.2837 36.8076 23.8648 35.7961C23.4459 34.7847 23.2311 33.7003 23.2328 32.6055C23.2328 30.3805 24.1035 28.2894 25.6737 26.7118C27.2513 25.1341 29.3424 24.2709 31.5674 24.2709C33.7925 24.2709 35.8836 25.1341 37.4612 26.7118C38.2365 27.4848 38.8512 28.4035 39.2701 29.4149C39.689 30.4264 39.9038 31.5107 39.9021 32.6055C39.9021 34.8306 39.0314 36.9217 37.4612 38.4993Z" fill="#606060"/>
</svg>
