<svg width="71" height="71" viewBox="0 0 71 71" fill="none" xmlns="http://www.w3.org/2000/svg">
<path d="M32.2327 10.6545H10.2739C8.60999 10.6545 7.01419 11.3155 5.83759 12.4921C4.661 13.6687 4 15.2645 4 16.9285V60.8461C4 62.51 4.661 64.1058 5.83759 65.2824C7.01419 66.459 8.60999 67.12 10.2739 67.12H54.1915C55.8555 67.12 57.4513 66.459 58.6279 65.2824C59.8045 64.1058 60.4655 62.51 60.4655 60.8461V38.8873" stroke="black" stroke-width="6.27394" stroke-linecap="round" stroke-linejoin="round"/>
<path d="M55.76 5.94906C57.008 4.7011 58.7006 4 60.4655 4C62.2304 4 63.923 4.7011 65.1709 5.94906C66.4189 7.19703 67.12 8.88963 67.12 10.6545C67.12 12.4194 66.4189 14.112 65.1709 15.36L35.3697 45.1612L22.8218 48.2982L25.9588 35.7503L55.76 5.94906Z" stroke="black" stroke-width="6.27394" stroke-linecap="round" stroke-linejoin="round"/>
</svg>
