<svg width="84" height="67" viewBox="0 0 84 67" fill="none" xmlns="http://www.w3.org/2000/svg">
<path d="M29.0696 33.2224C38.2446 33.2224 45.6807 25.7863 45.6807 16.6112C45.6807 7.4361 38.2446 0 29.0696 0C19.8945 0 12.4584 7.4361 12.4584 16.6112C12.4584 25.7863 19.8945 33.2224 29.0696 33.2224ZM40.6974 37.3751H38.5301C35.6491 38.6988 32.4437 39.4515 29.0696 39.4515C25.6954 39.4515 22.503 38.6988 19.609 37.3751H17.4417C7.81244 37.3751 0 45.1876 0 54.8169V60.2155C0 63.6545 2.79016 66.4447 6.22919 66.4447H41.9043C41.5928 65.5622 41.4631 64.6279 41.5669 63.6805L42.4493 55.7772L42.6051 54.3367L43.6303 53.3115L53.6619 43.2799C50.4824 39.6851 45.8754 37.3751 40.6974 37.3751V37.3751ZM46.5762 56.2314L45.6937 64.1477C45.551 65.4714 46.667 66.5875 47.9778 66.4317L55.881 65.5493L73.777 47.6533L64.4721 38.3485L46.5762 56.2314ZM82.1475 34.8964L77.229 29.978C76.0221 28.7711 74.0495 28.7711 72.8426 29.978L67.9371 34.8835L67.405 35.4155L76.7229 44.7204L82.1475 39.2958C83.3544 38.0759 83.3544 36.1163 82.1475 34.8964Z" fill="#1877F2"/>
</svg>
