<svg width="64" height="64" viewBox="0 0 64 64" fill="none" xmlns="http://www.w3.org/2000/svg">
<path d="M63.1015 0H0.0184922C0.00827923 0 0 0.00827923 0 0.0184922V63.1015C0 63.1117 0.00827923 63.12 0.0184922 63.12H63.1015C63.1117 63.12 63.12 63.1117 63.12 63.1015V0.0184922C63.12 0.00827923 63.1117 0 63.1015 0Z" fill="#1877F2"/>
<path d="M43.8388 40.6828L45.2442 31.56H36.4913V25.6425C36.4913 23.1522 37.7117 20.7112 41.6321 20.7112H45.6141V12.9445C45.6141 12.9445 42.0019 12.3281 38.5501 12.3281C31.3381 12.3281 26.6288 16.6923 26.6288 24.6069V31.56H18.6155V40.6828H26.6288V63.12H36.4913V40.6828H43.8388Z" fill="white"/>
</svg>
