<svg width="84" height="85" viewBox="0 0 84 85" fill="none" xmlns="http://www.w3.org/2000/svg">
<path d="M65.6384 9.05876C76.1874 16.5938 83.0526 28.9177 83.0526 42.8659C83.0526 65.7723 64.4998 84.3419 41.6101 84.3922C18.7538 84.4424 0.0335195 65.8058 3.05614e-05 42.9328C-0.0167139 28.9847 6.84852 16.6273 17.3808 9.07551C19.3399 7.68571 22.0693 8.27177 23.2414 10.3648L25.887 15.07C26.8749 16.8282 26.4061 19.0552 24.7819 20.2608C17.8329 25.4181 13.3956 33.5894 13.3956 42.8491C13.3789 58.3043 25.8702 70.9966 41.5263 70.9966C56.8643 70.9966 69.7575 58.5722 69.6571 42.6817C69.6068 34.008 65.5212 25.6358 58.2541 20.2441C56.6298 19.0385 56.1777 16.8115 57.1657 15.07L59.8113 10.3648C60.9834 8.28852 63.696 7.66897 65.6384 9.05876ZM48.2241 44.2054V4.01867C48.2241 1.79166 46.4325 0 44.2054 0H38.8472C36.6202 0 34.8285 1.79166 34.8285 4.01867V44.2054C34.8285 46.4324 36.6202 48.2241 38.8472 48.2241H44.2054C46.4325 48.2241 48.2241 46.4324 48.2241 44.2054Z" fill="#1877F2"/>
</svg>
