<svg width="64" height="46" viewBox="0 0 64 46" fill="none" xmlns="http://www.w3.org/2000/svg">
<path d="M0 32.8763C1.44751 34.7087 3.05131 36.412 4.79335 37.9671C4.78799 37.8143 4.76655 37.6697 4.76655 37.5169C4.77703 34.7976 5.61004 32.1451 7.15609 29.9081C8.70214 27.671 10.8889 25.9541 13.4289 24.983C13.896 24.8062 14.3045 24.5024 14.6081 24.1058C14.9118 23.7092 15.0985 23.2356 15.1473 22.7386C15.1961 22.2415 15.1049 21.7406 14.8841 21.2926C14.6633 20.8446 14.3217 20.4672 13.8978 20.203C12.7394 19.4873 11.7841 18.4862 11.1236 17.2955C10.463 16.1048 10.1193 14.7645 10.1252 13.4028C10.1194 11.8418 10.57 10.3132 11.4217 9.00501C12.2733 7.6968 13.4888 6.66611 14.9186 6.03975C16.3484 5.41339 17.9302 5.21868 19.4692 5.4796C21.0082 5.74051 22.4374 6.44566 23.5809 7.50827C25.2559 6.54686 27.0916 5.89775 28.9985 5.59254C27.9533 4.13227 26.6248 2.89733 25.0923 1.96132C23.5597 1.02531 21.8544 0.407372 20.0779 0.144326C18.3015 -0.11872 16.4903 -0.021492 14.7522 0.430218C13.0142 0.881929 11.3848 1.67888 9.96126 2.77358C8.5377 3.86828 7.34906 5.23834 6.46616 6.80211C5.58326 8.36589 5.02417 10.0914 4.82221 11.8758C4.62024 13.6602 4.77954 15.467 5.29059 17.1886C5.80165 18.9101 6.65401 20.5112 7.79689 21.8964C3.94079 24.4778 1.16637 28.3849 0 32.8763V32.8763ZM63.12 32.8763C61.9548 28.3829 59.1803 24.4738 55.3231 21.891C56.4623 20.5054 57.3112 18.9049 57.8194 17.1847C58.3277 15.4645 58.4849 13.6596 58.2817 11.8774C58.0784 10.0952 57.519 8.37207 56.6365 6.81042C55.754 5.24877 54.5666 3.88049 53.1447 2.78693C51.7229 1.69337 50.0957 0.896854 48.3598 0.444731C46.624 -0.0073929 44.815 -0.105892 43.0403 0.15509C41.2657 0.416071 39.5616 1.0312 38.0294 1.96392C36.4973 2.89664 35.1683 4.1279 34.1215 5.5845C36.0285 5.88959 37.8642 6.53872 39.5391 7.50023C40.36 6.74521 41.3294 6.16974 42.3854 5.81059C43.4413 5.45143 44.5605 5.31649 45.6716 5.41439C46.7826 5.51229 47.861 5.84088 48.8378 6.37916C49.8147 6.91743 50.6685 7.65356 51.3448 8.5405C52.021 9.42745 52.5048 10.4457 52.7653 11.5302C53.0257 12.6147 53.057 13.7416 52.8573 14.8389C52.6575 15.9363 52.2311 16.9798 51.6052 17.903C50.9793 18.8261 50.1677 19.6086 49.2222 20.2003C48.7983 20.4645 48.4567 20.8419 48.2359 21.2899C48.0151 21.7379 47.924 22.2388 47.9727 22.7359C48.0215 23.233 48.2082 23.7065 48.5119 24.1031C48.8155 24.4997 49.224 24.8035 49.6911 24.9803C52.2316 25.9516 54.4186 27.6689 55.9647 29.9065C57.5107 32.1441 58.3435 34.7972 58.3534 37.5169C58.3534 37.6697 58.332 37.8143 58.3267 37.9644C60.0686 36.4102 61.6724 34.7078 63.12 32.8763V32.8763Z" fill="black"/>
<path d="M50.1922 43.6366C49.9011 40.8869 49.0099 38.2347 47.5817 35.8671C46.1535 33.4995 44.2229 31.4743 41.9264 29.9344C43.8964 27.5434 44.9683 24.5388 44.9567 21.4409C44.9555 19.2944 44.4385 17.1797 43.4494 15.2747C42.4602 13.3698 41.0277 11.7304 39.2727 10.4946C37.5176 9.2589 35.4913 8.46296 33.3644 8.17385C31.2375 7.88474 29.0723 8.11093 27.051 8.83337C25.0298 9.55581 23.2118 10.7533 21.75 12.3251C20.2882 13.8969 19.2255 15.7969 18.6514 17.8652C18.0773 19.9335 18.0085 22.1094 18.4509 24.2098C18.8934 26.3101 19.834 28.2735 21.1936 29.9344C18.8971 31.4743 16.9665 33.4995 15.5383 35.8671C14.1101 38.2347 13.2189 40.8869 12.9278 43.6366C14.6287 44.5202 16.3909 45.2804 18.2008 45.9113C18.1954 45.7907 18.1633 45.6782 18.1633 45.555C18.1745 42.8358 19.0078 40.1837 20.5538 37.9467C22.0997 35.7098 24.286 33.9927 26.8256 33.021C27.2934 32.8446 27.7026 32.5407 28.0067 32.1439C28.3109 31.7471 28.4979 31.273 28.5467 30.7754C28.5955 30.2778 28.5041 29.7765 28.2828 29.3281C28.0615 28.8798 27.7191 28.5023 27.2945 28.2384C26.1358 27.5237 25.1802 26.5231 24.5196 25.3328C23.859 24.1424 23.5154 22.8022 23.522 21.4409C23.522 19.309 24.3688 17.2645 25.8763 15.7571C27.3837 14.2497 29.4282 13.4028 31.56 13.4028C33.6918 13.4028 35.7363 14.2497 37.2438 15.7571C38.7512 17.2645 39.598 19.309 39.598 21.4409C39.6046 22.8022 39.2611 24.1424 38.6004 25.3328C37.9398 26.5231 36.9842 27.5237 35.8255 28.2384C35.4009 28.5023 35.0585 28.8798 34.8372 29.3281C34.6159 29.7765 34.5245 30.2778 34.5733 30.7754C34.6221 31.273 34.8091 31.7471 35.1133 32.1439C35.4174 32.5407 35.8266 32.8446 36.2944 33.021C38.834 33.9927 41.0203 35.7098 42.5663 37.9467C44.1122 40.1837 44.9455 42.8358 44.9567 45.555C44.9567 45.6782 44.9246 45.7907 44.9219 45.9113C46.7309 45.2803 48.4922 44.5201 50.1922 43.6366V43.6366Z" fill="black"/>
</svg>
