<svg width="84" height="73" viewBox="0 0 84 73" fill="none" xmlns="http://www.w3.org/2000/svg">
<path d="M5.88992 23.3586C5.99926 23.4212 9.82438 25.5953 12.977 25.5953C16.1296 25.5953 20.0861 23.4212 20.1993 23.3586H21.6668C24.0418 23.3657 25.9539 25.2822 25.9539 27.6457V44.1217C25.9539 46.9885 23.6299 49.3125 20.7632 49.3125V68.778C20.7632 70.9281 19.0202 72.671 16.8701 72.671H9.08388C6.93376 72.671 5.19079 70.9281 5.19079 68.778V49.3125C2.32401 49.3125 0 46.9885 0 44.1217V27.7808C0 25.3431 1.9725 23.366 4.42223 23.3586H5.88992ZM34.4393 23.3586C34.5486 23.4212 38.3739 25.5953 41.5263 25.5953C44.6787 25.5953 48.6354 23.4212 48.7487 23.3586H50.2162C52.5911 23.3657 54.5033 25.2822 54.5033 27.6457V44.1217C54.5033 46.9885 52.1793 49.3125 49.3125 49.3125V68.778C49.3125 70.9281 47.5695 72.671 45.4194 72.671H37.6332C35.4831 72.671 33.7401 70.9281 33.7401 68.778V49.3125C30.8734 49.3125 28.5493 46.9885 28.5493 44.1217V27.7808C28.5493 25.3431 30.5218 23.366 32.9716 23.3586H34.4393ZM73.9688 72.671H66.1826C64.0324 72.671 62.2895 70.9281 62.2895 68.778V49.3125C59.4227 49.3125 57.0987 46.9885 57.0987 44.1217V27.7808C57.0987 25.3385 59.0786 23.3586 61.5209 23.3586H62.9886C62.9886 23.3586 66.8781 25.5953 70.0757 25.5953C73.2732 25.5953 77.298 23.3586 77.298 23.3586H78.7655C81.1333 23.3586 83.0526 25.2778 83.0526 27.6457V44.1217C83.0526 46.9885 80.7286 49.3125 77.8618 49.3125V68.778C77.8618 70.9227 76.1276 72.6623 73.9688 72.671ZM12.977 20.7632C18.7105 20.7632 23.3586 16.1151 23.3586 10.3816C23.3586 4.64803 18.7105 0 12.977 0C7.24342 0 2.59539 4.64803 2.59539 10.3816C2.59539 16.1151 7.24342 20.7632 12.977 20.7632ZM41.5263 20.7632C47.2599 20.7632 51.9079 16.1151 51.9079 10.3816C51.9079 4.64803 47.2599 0 41.5263 0C35.7928 0 31.1447 4.64803 31.1447 10.3816C31.1447 16.1151 35.7928 20.7632 41.5263 20.7632ZM80.4572 10.3816C80.4572 16.1151 75.8092 20.7632 70.0757 20.7632C64.3421 20.7632 59.6941 16.1151 59.6941 10.3816C59.6941 4.64803 64.3421 0 70.0757 0C75.8092 0 80.4572 4.64803 80.4572 10.3816Z" fill="#1877F2"/>
</svg>
