<svg width="84" height="110" viewBox="0 0 84 110" fill="none" xmlns="http://www.w3.org/2000/svg">
<path d="M41.5263 0C58.7078 0 72.6711 13.8075 72.6711 30.8852C72.6711 54.0361 41.5263 88.2434 41.5263 88.2434C41.5263 88.2434 10.3816 54.0361 10.3816 30.8852C10.3816 13.8075 24.3448 0 41.5263 0M41.5263 20.7632C38.773 20.7632 36.1324 21.8569 34.1854 23.8039C32.2385 25.7508 31.1447 28.3914 31.1447 31.1447C31.1447 32.5081 31.4133 33.858 31.935 35.1176C32.4567 36.3771 33.2214 37.5216 34.1854 38.4856C36.1324 40.4325 38.773 41.5263 41.5263 41.5263C44.2797 41.5263 46.9203 40.4325 48.8672 38.4856C50.8141 36.5387 51.9079 33.8981 51.9079 31.1447C51.9079 28.3914 50.8141 25.7508 48.8672 23.8039C46.9203 21.8569 44.2797 20.7632 41.5263 20.7632ZM83.0526 88.2434C83.0526 99.7151 64.4696 109.007 41.5263 109.007C18.583 109.007 0 99.7151 0 88.2434C0 81.5473 6.33276 75.5779 16.1434 71.7886L19.4655 76.5122C13.8594 78.8481 10.3816 82.0664 10.3816 85.648C10.3816 92.8113 24.3448 98.625 41.5263 98.625C58.7078 98.625 72.6711 92.8113 72.6711 85.648C72.6711 82.0664 69.1932 78.8481 63.5872 76.5122L66.9093 71.7886C76.7199 75.5779 83.0526 81.5473 83.0526 88.2434Z" fill="#1877F2"/>
</svg>
