<svg width="69" height="68" viewBox="0 0 69 68" fill="none" xmlns="http://www.w3.org/2000/svg">
<path d="M50.34 18.78L66.12 25.9527V63.2509L46.0364 54.6436L23.0836 63.2509L3 54.6436V17.3455L17.3455 23.0836M46.0364 54.6436V34.56M23.0836 63.2509V34.56M34.56 46.8188C34.56 46.8188 17.3455 33.1255 17.3455 20.2145C17.3455 9.45545 25.9527 3 34.56 3C43.1673 3 51.7745 9.45545 51.7745 20.2145C51.7745 33.1255 34.56 46.8188 34.56 46.8188ZM37.4291 20.2145C37.4291 18.6299 36.1447 17.3455 34.56 17.3455C32.9753 17.3455 31.6909 18.6299 31.6909 20.2145C31.6909 21.7992 32.9753 23.0836 34.56 23.0836C36.1447 23.0836 37.4291 21.7992 37.4291 20.2145Z" stroke="#606060" stroke-width="5.73818"/>
</svg>
