<svg width="87" height="88" viewBox="0 0 87 88" fill="none" xmlns="http://www.w3.org/2000/svg">
<path d="M68.1838 10.1086C70.4229 10.1086 72.2381 8.29339 72.2381 6.05428C72.2381 3.81516 70.4229 2 68.1838 2C65.9447 2 64.1295 3.81516 64.1295 6.05428C64.1295 8.29339 65.9447 10.1086 68.1838 10.1086Z" stroke="#1877F2" stroke-width="3.5" stroke-miterlimit="10"/>
<path d="M60.1174 42.416L55.9984 82.972C55.848 84.4514 56.7666 85.6616 58.0388 85.6616C59.311 85.6616 60.673 84.4883 61.0637 83.0538L68.478 55.8696C68.8687 54.435 69.8875 52.2653 70.7402 51.0485L73.7122 46.8054C74.5647 45.5887 75.2035 43.3767 75.1323 41.8921L74.4671 28.2168" stroke="#1877F2" stroke-width="3.5" stroke-miterlimit="10" stroke-linecap="round" stroke-linejoin="round"/>
<path d="M73.8139 46.6603L76.2739 62.236C76.5048 63.7049 77.327 65.9458 78.0977 67.2155L84.6173 77.9463C85.388 79.216 85.1083 80.8643 83.9931 81.6073C82.8779 82.3504 81.244 81.9809 80.3611 80.7838L73.241 71.1404C72.3581 69.9433 71.1941 67.8317 70.6544 66.4473L67.677 58.8073" stroke="#1877F2" stroke-width="3.5" stroke-miterlimit="10" stroke-linecap="round" stroke-linejoin="round"/>
<path d="M74.8815 35.0928L74.0263 20.8401C73.8482 17.8726 71.2694 15.3875 68.296 15.3875H68.226C65.2526 15.3875 62.5497 17.8614 62.2171 20.8163L61.5824 26.5097" stroke="#1877F2" stroke-width="3.5" stroke-miterlimit="10" stroke-linecap="round" stroke-linejoin="round"/>
<path d="M68.4517 22.1446L64.3049 30.8536C63.6663 32.1958 62.1063 33.9286 60.838 34.7034L50.573 40.9801" stroke="#1877F2" stroke-width="3.5" stroke-miterlimit="10" stroke-linecap="round" stroke-linejoin="round"/>
<path d="M11.4661 72.1474L18.2232 65.3902C18.2232 65.3902 41.1974 57.2817 50.573 40.9801" stroke="#1877F2" stroke-width="3.5" stroke-miterlimit="10" stroke-linecap="round" stroke-linejoin="round"/>
<path d="M47.9546 58.6331C50.6574 65.3902 42.5489 69.4445 38.4946 66.7416C37.452 66.0474 33.2869 64.9652 29.0346 65.3902L17.7798 65.8336L15.5204 64.4611" stroke="#1877F2" stroke-width="3.5" stroke-miterlimit="10" stroke-linecap="round" stroke-linejoin="round"/>
<path d="M30.386 73.4988C30.386 76.2016 32.0753 79.5816 32.0753 79.5816C32.0753 79.5816 32.5926 81.2498 31.7375 82.9588C30.386 85.6616 34.4403 87.0131 35.7917 84.3102C37.1432 81.6073 36.9161 79.3584 37.1432 78.9045C37.6882 77.8144 39.8447 76.3138 39.846 73.4988C39.846 72.1474 39.846 72.1474 39.846 72.1474" stroke="#1877F2" stroke-width="3.5" stroke-miterlimit="10" stroke-linecap="round" stroke-linejoin="round"/>
<path d="M30.386 76.2016C27.6278 78.9058 24.1357 78.9045 19.5746 78.9045" stroke="#1877F2" stroke-width="3.5" stroke-miterlimit="10" stroke-linecap="round" stroke-linejoin="round"/>
<path d="M12.8175 74.8502C11.445 76.1053 10.1147 76.2016 8.76323 77.5531C7.41181 78.9045 7.41181 81.6073 8.76323 82.9588" stroke="#1877F2" stroke-width="3.5" stroke-miterlimit="10" stroke-linecap="round" stroke-linejoin="round"/>
<path d="M12.8175 59.9845L11.4661 62.6874C11.4661 62.6874 8.43335 63.0925 7.41181 64.0388C6.62785 64.7647 6.06038 68.0931 6.06038 68.0931C6.06038 68.0931 2.17112 70.2456 2.00611 70.7959C1.87948 71.2183 3.7535 73.4988 4.70896 73.4988C6.06038 73.4988 10.1147 72.1474 10.1147 72.1474C12.8175 72.1474 12.8175 76.2016 14.1689 77.5531C14.7233 78.1074 14.1689 81.6073 13.7176 82.9034C12.799 85.5442 16.8718 87.013 17.9989 84.0859C18.4107 83.0128 19.5746 80.2559 19.5746 77.5531" stroke="#1877F2" stroke-width="3.5" stroke-miterlimit="10" stroke-linecap="round" stroke-linejoin="round"/>
</svg>
