<svg width="64" height="64" viewBox="0 0 64 64" fill="none" xmlns="http://www.w3.org/2000/svg">
<path d="M53.1313 48.7996C50.3303 44.2866 44.1643 39.45 31.56 39.45C18.9557 39.45 12.7936 44.2826 9.98874 48.7996C12.573 52.0394 15.8546 54.6548 19.5893 56.4511C23.324 58.2474 27.4157 59.1785 31.56 59.175C35.7043 59.1785 39.796 58.2474 43.5307 56.4511C47.2654 54.6548 50.547 52.0394 53.1313 48.7996V48.7996Z" fill="#606060"/>
<path fill-rule="evenodd" clip-rule="evenodd" d="M31.56 35.505C34.6988 35.505 37.7091 34.2581 39.9286 32.0386C42.1481 29.8191 43.395 26.8088 43.395 23.67C43.395 20.5312 42.1481 17.5209 39.9286 15.3014C37.7091 13.0819 34.6988 11.835 31.56 11.835C28.4212 11.835 25.4109 13.0819 23.1914 15.3014C20.9719 17.5209 19.725 20.5312 19.725 23.67C19.725 26.8088 20.9719 29.8191 23.1914 32.0386C25.4109 34.2581 28.4212 35.505 31.56 35.505V35.505Z" fill="#606060"/>
<path fill-rule="evenodd" clip-rule="evenodd" d="M31.56 3.945C24.236 3.945 17.2121 6.85443 12.0332 12.0332C6.85443 17.2121 3.945 24.236 3.945 31.56C3.945 38.884 6.85443 45.9079 12.0332 51.0868C17.2121 56.2656 24.236 59.175 31.56 59.175C38.884 59.175 45.9079 56.2656 51.0868 51.0868C56.2656 45.9079 59.175 38.884 59.175 31.56C59.175 24.236 56.2656 17.2121 51.0868 12.0332C45.9079 6.85443 38.884 3.945 31.56 3.945V3.945ZM0 31.56C0 23.1898 3.32506 15.1624 9.24371 9.24371C15.1624 3.32506 23.1898 0 31.56 0C39.9302 0 47.9576 3.32506 53.8763 9.24371C59.7949 15.1624 63.12 23.1898 63.12 31.56C63.12 39.9302 59.7949 47.9576 53.8763 53.8763C47.9576 59.7949 39.9302 63.12 31.56 63.12C23.1898 63.12 15.1624 59.7949 9.24371 53.8763C3.32506 47.9576 0 39.9302 0 31.56V31.56Z" fill="#606060"/>
</svg>
