<svg width="64" height="73" viewBox="0 0 64 73" fill="none" xmlns="http://www.w3.org/2000/svg">
<path d="M28.9163 23.4006C28.8732 23.1395 28.8234 22.878 28.7576 22.6162C27.5593 17.8588 22.9883 14.9087 18.5481 16.0272C14.1078 17.1456 11.4797 21.9089 12.678 26.6663C12.7439 26.9281 12.824 27.1819 12.9098 27.4324C11.5438 28.8285 10.9064 30.948 11.4445 33.0841C12.2434 36.2557 15.2907 38.2223 18.2509 37.4767C20.2446 36.9745 22.6432 33.3168 22.8875 33.2553C23.1319 33.1937 26.9769 35.2788 28.9707 34.7766C31.9309 34.031 33.6829 30.8555 32.8841 27.6838C32.3459 25.5477 30.7807 23.983 28.9163 23.4006V23.4006Z" stroke="black" stroke-width="2.36883" stroke-miterlimit="10" stroke-linecap="round" stroke-linejoin="round"/>
<path d="M12.5315 12.6256C14.1717 11.9913 14.7815 9.61576 13.8935 7.31967C13.0056 5.02358 10.9561 3.67643 9.31595 4.31072C7.67579 4.94502 7.06601 7.32056 7.95397 9.61666C8.84193 11.9127 10.8914 13.2599 12.5315 12.6256Z" stroke="black" stroke-width="2.36883" stroke-miterlimit="10" stroke-linecap="round" stroke-linejoin="round"/>
<path d="M7.62885 22.957C9.08595 21.9726 9.14999 19.521 7.77189 17.4811C6.3938 15.4413 4.09541 14.5857 2.63831 15.5702C1.18121 16.5546 1.11717 19.0062 2.49527 21.046C3.87337 23.0858 6.17175 23.9414 7.62885 22.957Z" stroke="black" stroke-width="2.36883" stroke-miterlimit="10" stroke-linecap="round" stroke-linejoin="round"/>
<path d="M34.3738 11.5403C34.5579 9.08542 33.2856 6.98872 31.5321 6.85718C29.7785 6.72565 28.2076 8.60909 28.0235 11.064C27.8394 13.5188 29.1116 15.6155 30.8652 15.7471C32.6188 15.8786 34.1896 13.9952 34.3738 11.5403Z" stroke="black" stroke-width="2.36883" stroke-miterlimit="10" stroke-linecap="round" stroke-linejoin="round"/>
<path d="M21.8652 10.2837C23.6049 10.0273 24.7242 7.84515 24.3653 5.40973C24.0064 2.9743 22.3051 1.20784 20.5654 1.46423C18.8257 1.72062 17.7064 3.90277 18.0653 6.3382C18.4242 8.77363 20.1255 10.5401 21.8652 10.2837Z" stroke="black" stroke-width="2.36883" stroke-miterlimit="10" stroke-linecap="round" stroke-linejoin="round"/>
<path d="M50.0125 61.1413C50.1043 60.8931 50.1905 60.6411 50.2628 60.3812C51.5762 55.6542 49.0644 50.8286 44.6526 49.6028C40.2407 48.3769 35.5996 51.2151 34.2862 55.9421C34.2139 56.2022 34.1579 56.4624 34.1084 56.7225C32.2305 57.2595 30.6278 58.7858 30.0381 60.9082C29.1624 64.0595 30.8369 67.2766 33.7782 68.0938C35.7591 68.6442 39.6537 66.6531 39.8964 66.7206C40.1391 66.7881 42.4482 70.5029 44.4293 71.0533C47.3704 71.8706 50.4646 69.9784 51.3402 66.8271C51.9298 64.7044 51.3441 62.5701 50.0125 61.1413Z" stroke="black" stroke-width="2.36883" stroke-miterlimit="10" stroke-linecap="round" stroke-linejoin="round"/>
<path d="M44.922 39.7313C45.2868 37.2967 44.1727 35.1117 42.4335 34.8511C40.6944 34.5905 38.9887 36.3529 38.6239 38.7876C38.2591 41.2223 39.3732 43.4073 41.1123 43.6679C42.8515 43.9285 44.5571 42.166 44.922 39.7313Z" stroke="black" stroke-width="2.36883" stroke-miterlimit="10" stroke-linecap="round" stroke-linejoin="round"/>
<path d="M31.7357 50.221C33.4891 50.0868 34.7583 47.9882 34.5704 45.5336C34.3826 43.0789 32.8089 41.1978 31.0555 41.332C29.3021 41.4662 28.0329 43.5648 28.2208 46.0194C28.4086 48.4741 29.9823 50.3552 31.7357 50.221Z" stroke="black" stroke-width="2.36883" stroke-miterlimit="10" stroke-linecap="round" stroke-linejoin="round"/>
<path d="M60.6301 53.5366C62.0052 51.4946 61.9375 49.0428 60.4788 48.0605C59.0201 47.0782 56.7229 47.9373 55.3477 49.9794C53.9726 52.0214 54.0403 54.4731 55.499 55.4554C56.9577 56.4377 59.2549 55.5786 60.6301 53.5366Z" stroke="black" stroke-width="2.36883" stroke-miterlimit="10" stroke-linecap="round" stroke-linejoin="round"/>
<path d="M54.9641 43.2581C55.8577 40.9643 55.2538 38.5872 53.6152 37.9489C51.9766 37.3106 49.9239 38.6526 49.0302 40.9465C48.1366 43.2404 48.7405 45.6174 50.3791 46.2558C52.0177 46.8941 54.0704 45.552 54.9641 43.2581Z" stroke="black" stroke-width="2.36883" stroke-miterlimit="10" stroke-linecap="round" stroke-linejoin="round"/>
</svg>
