<svg width="64" height="59" viewBox="0 0 64 59" fill="none" xmlns="http://www.w3.org/2000/svg">
<path d="M49.6149 14.0922L41.887 2.9289C41.3142 2.10325 40.5529 1.42598 39.6662 0.953218C38.7794 0.480458 37.7928 0.225818 36.788 0.2104L22.1222 0H22.092C14.5204 0 8.71095 1.26648 4.96938 7.44737C1.48595 13.2008 0 23.0013 0 40.2173V42.3213H4.80725L1.71266 58.1013H6.00087L9.09546 42.3213H10.52C13.9563 42.352 17.2668 41.0298 19.7366 38.6404C21.9693 36.504 23.5798 33.5813 24.3942 30.1883L24.4015 30.1578L28.0103 12.8653H23.7116L20.2953 29.2355C19.2549 33.5329 16.1437 38.1133 10.52 38.1133H4.21589C4.33016 23.2188 5.68632 14.3882 8.5692 9.62593C10.9888 5.62833 14.5255 4.20932 22.0774 4.20734L36.7276 4.41774C37.0625 4.42284 37.3914 4.5077 37.687 4.66529C37.9825 4.82288 38.2363 5.04866 38.4272 5.32391L47.169 17.9504L58.912 19.9077V22.1378L56.9537 32.5816C56.3758 35.6641 55.3878 37.2169 51.3363 37.7035L34.727 40.5451L34.6172 58.1013H38.8252L38.9129 44.0975L51.892 41.8751C54.8323 41.5136 57.0017 40.566 58.523 38.9791C59.8236 37.6223 60.6151 35.8888 61.0898 33.3572L63.12 22.5288V16.343L49.6149 14.0922Z" fill="#606060"/>
</svg>
