<svg width="64" height="57" viewBox="0 0 64 57" fill="none" xmlns="http://www.w3.org/2000/svg">
<path d="M44.0863 37.8043L47.5931 34.2976C48.141 33.7497 49.0944 34.1332 49.0944 34.9222V50.856C49.0944 53.76 46.7383 56.1161 43.8343 56.1161H5.26011C2.35609 56.1161 0 53.76 0 50.856V12.2818C0 9.3778 2.35609 7.0217 5.26011 7.0217H35.2318C36.0099 7.0217 36.4044 7.96414 35.8564 8.52303L32.3497 12.0298C32.1853 12.1941 31.9661 12.2818 31.7251 12.2818H5.26011V50.856H43.8343V38.418C43.8343 38.1879 43.9219 37.9687 44.0863 37.8043ZM61.2475 15.6899L32.4702 44.4671L22.5637 45.563C19.6925 45.8808 17.2488 43.459 17.5666 40.5659L18.6624 30.6593L47.4396 1.88213C49.9492 -0.627378 54.0038 -0.627378 56.5024 1.88213L61.2365 6.61624C63.746 9.12575 63.746 13.1914 61.2475 15.6899V15.6899ZM50.4204 19.0761L44.0535 12.7092L23.6924 33.0812L22.8925 40.2371L30.0484 39.4372L50.4204 19.0761ZM57.5215 10.3422L52.7874 5.60805C52.3381 5.15875 51.6039 5.15875 51.1656 5.60805L47.7794 8.99425L54.1463 15.3612L57.5325 11.975C57.9708 11.5147 57.9708 10.7915 57.5215 10.3422V10.3422Z" fill="#606060"/>
</svg>
